<svg width="120" height="120" viewBox="0 0 120 120" fill="none" xmlns="http://www.w3.org/2000/svg">
<path d="M48.55 56.45C47.6085 55.5085 46.3315 54.9795 45 54.9795C43.6685 54.9795 42.3915 55.5085 41.45 56.45C40.5085 57.3915 39.9796 58.6685 39.9796 60C39.9796 61.3315 40.5085 62.6085 41.45 63.55L56.45 78.55C56.9172 79.0134 57.4713 79.38 58.0805 79.6289C58.6897 79.8777 59.342 80.0038 60 80C60.6845 79.9783 61.3572 79.8162 61.9765 79.5238C62.5958 79.2313 63.1484 78.8148 63.6 78.3L98.6 38.3C99.4082 37.2966 99.7978 36.0201 99.6877 34.7364C99.5777 33.4528 98.9763 32.2612 98.0092 31.41C97.042 30.5589 95.7836 30.114 94.4964 30.168C93.2092 30.222 91.9925 30.7708 91.1 31.7L60 67.7L48.55 56.45Z" fill="#44DCE6"/>
<path d="M105 55C103.674 55 102.402 55.5268 101.464 56.4645C100.527 57.4021 100 58.6739 100 60C100 70.6087 95.7857 80.7828 88.2843 88.2843C80.7828 95.7857 70.6086 100 60 100C52.1004 99.9964 44.3788 97.6538 37.8088 93.2677C31.2388 88.8816 26.1146 82.6483 23.0824 75.3539C20.0502 68.0594 19.2457 60.0305 20.7704 52.2795C22.2951 44.5284 26.0808 37.4024 31.65 31.8C35.3535 28.0469 39.7684 25.0702 44.6363 23.0441C49.5042 21.0179 54.7273 19.983 60 20C63.1972 20.02 66.3828 20.3889 69.5 21.1C70.1523 21.3018 70.8391 21.3678 71.5179 21.294C72.1967 21.2202 72.8532 21.0081 73.447 20.6709C74.0407 20.3336 74.5591 19.8784 74.9701 19.3331C75.3811 18.7879 75.6761 18.1642 75.8369 17.5006C75.9977 16.8369 76.0208 16.1474 75.9049 15.4745C75.789 14.8016 75.5365 14.1595 75.1629 13.588C74.7894 13.0164 74.3027 12.5274 73.7329 12.1511C73.1631 11.7748 72.5223 11.5192 71.85 11.4C67.9657 10.4862 63.9902 10.0165 60 10C50.1217 10.0513 40.4799 13.0276 32.2915 18.5533C24.103 24.0789 17.7348 31.9063 13.9906 41.0477C10.2463 50.189 9.29377 60.2346 11.2532 69.9168C13.2125 79.599 17.996 88.4838 25 95.45C34.2834 104.738 46.8682 109.969 60 110C73.2608 110 85.9785 104.732 95.3553 95.3553C104.732 85.9785 110 73.2608 110 60C110 58.6739 109.473 57.4021 108.536 56.4645C107.598 55.5268 106.326 55 105 55Z" fill="#44DCE6"/>
</svg>
