<svg width="192" height="134" viewBox="0 0 192 134" fill="none" xmlns="http://www.w3.org/2000/svg">
<g clip-path="url(#clip0)">
<path d="M189.828 78.6773C189.828 97.3571 178.655 103.879 164.873 103.879C151.09 103.879 139.917 97.3571 139.917 78.6773C139.917 59.9975 164.873 36.2339 164.873 36.2339C164.873 36.2339 189.828 59.9975 189.828 78.6773Z" fill="#F2F2F2"/>
<path d="M163.964 101.022L164.219 85.3886L174.856 66.0481L164.26 82.9362L164.374 75.9068L171.705 61.9141L164.405 74.0467L164.611 61.404L172.461 50.2641L164.644 59.416L164.773 36.234L163.962 66.9228L164.028 65.6567L156.047 53.5149L163.9 68.0872L163.157 82.2067L163.134 81.8319L153.934 69.0544L163.107 83.156L163.014 84.9217L162.997 84.9483L163.005 85.0933L161.118 120.916H163.639L163.941 102.413L173.092 88.346L163.964 101.022Z" fill="#3F3D56"/>
<path d="M137.921 61.6757C137.921 85.8349 123.471 94.2703 105.645 94.2703C87.8197 94.2703 73.3693 85.8349 73.3693 61.6757C73.3693 37.5165 105.645 6.78218 105.645 6.78218C105.645 6.78218 137.921 37.5165 137.921 61.6757Z" fill="#F2F2F2"/>
<path d="M104.469 90.5748L104.8 70.3557L118.557 45.3418L104.852 67.1839L105 58.0926L114.481 39.9953L105.04 55.6867V55.6869L105.307 39.3356L115.459 24.9279L105.349 36.7644L105.516 6.78227L104.466 46.4733L104.553 44.8359L94.2305 29.1325L104.387 47.979L103.425 66.2404L103.397 65.7556L91.4971 49.2301L103.361 67.4681L103.24 69.7519L103.219 69.7863L103.229 69.9737L100.789 116.304H104.049L104.44 92.3737L116.275 74.1806L104.469 90.5748Z" fill="#3F3D56"/>
<path d="M187.832 124.347C187.832 126.166 182.516 127.864 173.33 129.293C156.685 131.887 127.339 133.608 93.9154 133.608C42.0482 133.608 6.10352e-05 129.463 6.10352e-05 124.347C6.10352e-05 123.641 0.807148 122.948 2.33627 122.286C4.06083 121.536 6.70649 120.822 10.1484 120.155C17.2439 118.779 27.727 117.603 40.5137 116.729C55.3561 115.716 73.3057 115.113 92.6686 115.09C93.083 115.088 93.4986 115.088 93.9154 115.088C96.248 115.088 98.56 115.097 100.852 115.113C101.928 115.121 103 115.13 104.067 115.142C115.471 115.263 126.264 115.585 136.072 116.07C136.51 116.092 136.946 116.115 137.38 116.137C137.529 116.144 137.677 116.153 137.826 116.16C137.865 116.162 137.905 116.164 137.945 116.167C139.872 116.268 141.757 116.375 143.6 116.489C144.205 116.525 144.803 116.563 145.397 116.603C151.164 116.975 156.488 117.408 161.276 117.896C162.094 117.979 162.897 118.063 163.683 118.149C169.742 118.81 174.843 119.56 178.774 120.374C184.582 121.578 187.832 122.925 187.832 124.347Z" fill="#3F3D56"/>
<path opacity="0.1" d="M136.257 128.481C147.559 128.481 156.721 126.371 156.721 123.769C156.721 121.166 147.559 119.056 136.257 119.056C124.956 119.056 115.794 121.166 115.794 123.769C115.794 126.371 124.956 128.481 136.257 128.481Z" fill="black"/>
<path opacity="0.1" d="M187.832 124.347C187.832 126.166 182.516 127.864 173.33 129.293C166.385 128.54 161.577 126.912 161.577 125.027C161.577 122.68 169.025 120.734 178.774 120.374C184.582 121.578 187.832 122.925 187.832 124.347Z" fill="black"/>
<path opacity="0.1" d="M101.819 122.198C101.819 125.303 79.5466 127.82 52.0739 127.82C24.859 127.82 2.74842 125.351 2.33582 122.285C7.61808 119.994 21.525 118.026 40.5128 116.728C44.2229 116.629 48.0943 116.576 52.0739 116.576C79.5466 116.576 101.819 119.092 101.819 122.198Z" fill="black"/>
<path d="M92.6682 0H10.1486V122.859H92.6682V0Z" fill="#3F3D56"/>
<path d="M92.6682 42.6618H15.1397V80.3628H92.6682V42.6618Z" fill="#2F2E41"/>
<path d="M123.114 43.4885H46.4173V79.3707H123.114V43.4885Z" fill="#3F3D56"/>
<path d="M68.2534 48.7799H51.1173V54.8981H68.2534V48.7799Z" fill="#447CE6"/>
<path d="M118.414 59.528H55.3597V61.1816H118.414V59.528Z" fill="#447CE6"/>
<path d="M118.414 63.8273H55.3597V65.4808H118.414V63.8273Z" fill="#447CE6"/>
<path d="M118.414 68.1265H55.3597V69.7801H118.414V68.1265Z" fill="#447CE6"/>
<path d="M118.414 72.4258H55.3597V74.0793H118.414V72.4258Z" fill="#447CE6"/>
<path d="M32.775 13.8898H15.6388V20.008H32.775V13.8898Z" fill="#F2F2F2"/>
<path d="M82.9356 24.638H19.8812V26.2916H82.9356V24.638Z" fill="#F2F2F2"/>
<path d="M82.9356 28.9372H19.8812V30.5908H82.9356V28.9372Z" fill="#F2F2F2"/>
<path d="M82.9356 33.2365H19.8812V34.89H82.9356V33.2365Z" fill="#F2F2F2"/>
<path d="M82.9356 37.5357H19.8812V39.1893H82.9356V37.5357Z" fill="#F2F2F2"/>
<path d="M33.4404 84.166H16.3043V90.2842H33.4404V84.166Z" fill="#F2F2F2"/>
<path d="M83.601 94.9141H20.5467V96.5677H83.601V94.9141Z" fill="#F2F2F2"/>
<path d="M83.601 99.2134H20.5467V100.867H83.601V99.2134Z" fill="#F2F2F2"/>
<path d="M83.601 103.513H20.5467V105.166H83.601V103.513Z" fill="#F2F2F2"/>
<path d="M83.601 107.812H20.5467V109.465H83.601V107.812Z" fill="#F2F2F2"/>
<path d="M130.846 25.2626C130.846 25.2626 134.267 29.6187 133.84 32.6999C133.412 35.7811 140.895 28.45 140.895 28.45C140.895 28.45 138.329 23.1376 139.719 20.5876C141.109 18.0377 130.846 25.2626 130.846 25.2626Z" fill="#FFB9B9"/>
<path d="M142.819 113.449C142.819 113.449 147.309 118.336 146.561 119.399C145.812 120.461 132.664 124.499 131.167 124.286C129.671 124.074 128.922 123.011 129.457 122.692C129.991 122.374 133.412 120.567 133.412 120.567L136.298 117.274C136.298 117.274 138.436 116.105 138.436 115.468C138.436 114.83 142.819 113.449 142.819 113.449Z" fill="#2F2E41"/>
<path d="M135.229 118.867C135.229 118.867 133.519 121.63 133.198 121.736C132.878 121.842 134.802 125.667 134.802 125.667L139.292 124.286L141.75 122.267L141.216 119.505L135.229 118.867Z" fill="#FFB9B9"/>
<path d="M130.633 66.1682L128.495 75.6243C128.495 75.6243 121.118 92.0928 126.25 94.9615L137.474 116.317L143.461 113.661L133.412 91.7741L138.009 66.5932L130.633 66.1682Z" fill="#D0CDE1"/>
<path opacity="0.1" d="M130.633 66.1682L128.495 75.6243C128.495 75.6243 121.118 92.0928 126.25 94.9615L137.474 116.317L143.461 113.661L133.412 91.7741L138.009 66.5932L130.633 66.1682Z" fill="black"/>
<path d="M131.381 67.6557H130.296C130.212 70.9234 130.396 74.1925 130.846 77.4305C131.595 82.8492 133.519 95.2803 133.519 95.2803C133.519 95.2803 133.305 97.6177 133.947 98.3615C134.588 99.1052 134.695 98.149 134.802 99.8489C134.909 101.549 135.924 113.368 135.924 113.368C135.924 113.368 136.619 115.786 135.871 116.317C135.122 116.849 133.626 119.717 134.695 120.142C135.764 120.567 143.14 121.099 143.461 120.78C143.781 120.461 143.461 100.486 143.461 100.486C143.461 100.486 143.247 96.449 143.033 96.2365C142.819 96.024 141.857 93.1553 142.178 92.5178C142.499 91.8803 142.285 89.9679 142.285 89.6491C142.285 89.3304 141.323 89.6491 142.178 88.2679C143.033 86.8866 143.14 75.8368 143.14 75.8368C143.14 75.8368 147.737 68.8244 146.347 67.0182L131.381 67.6557Z" fill="#D0CDE1"/>
<path d="M133.84 26.8563C137.736 26.8563 140.895 23.7167 140.895 19.8439C140.895 15.971 137.736 12.8315 133.84 12.8315C129.943 12.8315 126.784 15.971 126.784 19.8439C126.784 23.7167 129.943 26.8563 133.84 26.8563Z" fill="#FFB9B9"/>
<path d="M140.895 27.2813C140.895 27.2813 136.619 28.3438 134.909 30.8937L133.412 31.2125V32.7C133.412 32.7 130.633 41.5186 131.274 45.3435C131.915 49.1685 131.274 56.6059 130.205 58.6246C129.136 60.6433 128.815 61.0683 129.35 61.9183C129.884 62.7683 130.633 65.637 130.098 66.912C129.564 68.1869 130.098 69.4619 135.016 69.7807C139.933 70.0994 146.882 70.0994 146.882 68.3994C146.882 66.6995 146.454 61.9183 146.882 60.6433C147.309 59.3683 147.523 58.5183 147.309 57.3496C147.095 56.1809 147.737 43.1123 147.737 43.1123C147.737 43.1123 147.844 30.0437 140.895 27.2813Z" fill="#2F2E41"/>
<path d="M130.846 60.1121L124.967 68.8244C124.967 68.8244 118.767 74.4556 121.012 77.0056C123.256 79.5555 129.136 69.5682 129.136 69.5682L135.55 62.3433L130.846 60.1121Z" fill="#FFB9B9"/>
<path d="M134.588 122.267C134.588 122.267 134.374 120.886 133.626 120.886C132.878 120.886 127.853 124.286 127.853 124.286C127.853 124.286 121.225 125.03 123.791 126.411C126.357 127.792 142.071 128.005 142.178 127.474C142.285 126.942 142.499 121.704 141.75 121.72C141.002 121.736 135.016 122.905 135.016 122.905L134.588 122.267Z" fill="#2F2E41"/>
<path d="M134.342 16.2211C134.091 16.3439 133.815 16.4059 133.535 16.4022C133.247 16.4185 132.903 16.4007 132.749 16.1575C132.677 15.9974 132.643 15.8226 132.651 15.6472C132.621 15.422 132.545 15.2053 132.428 15.01C132.311 14.8148 132.156 14.6452 131.971 14.5113C131.786 14.3775 131.576 14.2823 131.353 14.2315C131.13 14.1806 130.9 14.1752 130.675 14.2155C130.705 14.5667 130.813 14.907 130.99 15.2125C130.677 15.3179 130.344 15.3502 130.017 15.3069C129.69 15.2637 129.377 15.146 129.104 14.963L128.995 16.3942C128.611 16.5764 128.12 16.6144 127.786 16.3537C127.451 16.093 127.425 15.4811 127.803 15.2884C127.336 15.1916 126.764 14.9835 126.73 14.5104C126.698 14.0787 127.16 13.7627 127.244 13.3381C127.314 12.9919 127.123 12.6155 127.258 12.289C127.435 11.8601 128.08 11.75 128.209 11.3044C128.275 11.0775 128.181 10.8347 128.203 10.5996C128.262 9.984 129.041 9.7284 129.662 9.76339C130.284 9.79838 130.962 9.96235 131.489 9.63476C131.745 9.47593 131.924 9.2217 132.149 9.02178C132.46 8.75681 132.846 8.59534 133.254 8.56008C133.662 8.52483 134.071 8.61755 134.423 8.82522C134.673 8.97963 134.891 9.19363 135.17 9.28748C135.74 9.47956 136.335 9.11614 136.931 9.03236C137.149 8.99524 137.373 9.00774 137.585 9.06891C137.798 9.13008 137.993 9.23834 138.158 9.38554C138.317 9.53796 138.421 9.73848 138.455 9.95594C138.488 10.1734 138.447 10.3956 138.34 10.5881C138.69 10.5294 139.061 10.4726 139.39 10.6028C139.72 10.733 139.972 11.1253 139.819 11.4436C139.763 11.527 139.718 11.6179 139.686 11.7136C139.655 11.8987 139.835 12.0571 140.016 12.1102C140.197 12.1633 140.394 12.1533 140.571 12.2178C141.304 12.4844 141.128 13.6487 141.705 14.171C141.903 14.314 142.112 14.4411 142.33 14.551C142.616 14.7484 142.826 15.0374 142.924 15.3699C143.021 15.7024 143.001 16.0581 142.866 16.3776C142.751 16.632 142.557 16.8748 142.58 17.1531C142.613 17.5433 143.034 17.757 143.329 18.0163C143.598 18.2631 143.782 18.588 143.855 18.9448C143.928 19.3016 143.886 19.6722 143.734 20.0038C143.463 20.5664 142.875 20.9929 142.816 21.614C142.79 21.884 142.871 22.1535 142.867 22.4247C142.85 22.6753 142.776 22.9189 142.651 23.1373C142.525 23.3556 142.352 23.5431 142.144 23.6858C141.726 23.9677 141.254 24.1628 140.758 24.2592C140.525 24.3147 140.247 24.4015 140.19 24.6329C140.123 24.9074 140.431 25.1571 140.399 25.4377C140.38 25.5596 140.312 25.6687 140.211 25.741C139.794 26.0651 139.134 25.7872 138.879 25.3261C138.624 24.865 138.657 24.3062 138.696 23.7815L138.84 21.8735C138.885 21.2799 138.88 20.5749 138.393 20.2282C137.855 19.8449 137.071 20.1552 136.462 19.8962C135.828 19.6263 135.6 18.8364 135.626 18.1511C135.652 17.4658 135.849 16.7794 135.736 16.1029C135.595 15.2645 134.845 14.7011 134.087 15.2444C134.753 15.1542 134.868 15.9137 134.342 16.2211Z" fill="#2F2E41"/>
<path opacity="0.1" d="M140.254 32.3812C140.254 32.3812 135.978 34.0812 135.978 37.6936C135.978 41.3061 136.191 46.0872 135.443 47.681C134.695 49.2747 134.053 49.8059 134.481 51.0809C134.909 52.3559 135.657 52.1434 134.481 53.0997C133.305 54.0559 133.412 52.4622 133.305 54.0559C133.198 55.6496 134.374 55.8621 133.305 56.6058C132.236 57.3496 129.457 60.3245 130.633 61.2808C131.809 62.237 134.909 65.3182 135.978 64.1495C137.047 62.9807 137.581 60.0058 139.078 60.2183C140.574 60.4308 140.788 60.537 140.574 59.4746C140.361 58.4121 139.398 58.4121 140.681 58.0933C141.964 57.7746 142.499 58.5183 142.071 57.4558C141.643 56.3933 141.323 55.9684 142.178 54.7996C143.033 53.6309 143.461 53.3121 143.354 52.1434C143.247 50.9747 145.706 40.4561 145.706 40.4561C145.706 40.4561 146.454 31.5312 140.254 32.3812Z" fill="black"/>
<path opacity="0.1" d="M139.078 32.1687C139.078 32.1687 134.802 33.8687 134.802 37.4811C134.802 41.0935 135.015 45.8747 134.267 47.4685C133.519 49.0622 132.877 49.5934 133.305 50.8684C133.733 52.1434 134.481 51.9309 133.305 52.8871C132.129 53.8434 132.236 52.2496 132.129 53.8434C132.022 55.4371 133.198 55.6496 132.129 56.3933C131.06 57.1371 128.281 60.112 129.457 61.0683C130.633 62.0245 133.733 65.1057 134.802 63.937C135.871 62.7682 136.405 59.7933 137.902 60.0058C139.398 60.2183 139.612 60.3245 139.398 59.262C139.185 58.1996 138.222 58.1996 139.505 57.8808C140.788 57.5621 141.323 58.3058 140.895 57.2433C140.467 56.1808 140.147 55.7558 141.002 54.5871C141.857 53.4184 142.285 53.0996 142.178 51.9309C142.071 50.7622 144.53 40.2436 144.53 40.2436C144.53 40.2436 145.278 31.3187 139.078 32.1687Z" fill="black"/>
<path d="M139.612 31.85C139.612 31.85 135.336 33.5499 135.336 37.1624C135.336 40.7748 135.55 45.556 134.802 47.1497C134.053 48.7435 133.412 49.2747 133.84 50.5497C134.267 51.8247 135.016 51.6122 133.84 52.5684C132.664 53.5246 132.771 51.9309 132.664 53.5246C132.557 55.1184 133.733 55.3309 132.664 56.0746C131.595 56.8183 128.815 59.7933 129.991 60.7495C131.167 61.7058 134.267 64.787 135.336 63.6182C136.405 62.4495 136.94 59.4745 138.436 59.687C139.933 59.8995 140.147 60.0058 139.933 58.9433C139.719 57.8808 138.757 57.8808 140.04 57.5621C141.323 57.2433 141.857 57.9871 141.43 56.9246C141.002 55.8621 140.681 55.4371 141.536 54.2684C142.392 53.0996 142.819 52.7809 142.712 51.6122C142.605 50.4434 145.064 39.9248 145.064 39.9248C145.064 39.9248 145.813 31 139.612 31.85Z" fill="#2F2E41"/>
<path d="M161.96 105.255C161.96 114.551 167.828 122.073 175.079 122.073Z" fill="#2F2E41"/>
<path d="M175.079 122.073C175.079 112.673 181.627 105.066 189.719 105.066Z" fill="#447CE6"/>
<path d="M166.714 106.098C166.714 114.928 170.455 122.073 175.079 122.073Z" fill="#447CE6"/>
<path d="M175.079 122.073C175.079 110.062 182.647 100.342 192 100.342Z" fill="#2F2E41"/>
<path d="M172.319 122.192C172.319 122.192 174.18 122.135 174.74 121.738C175.301 121.341 177.602 120.867 177.741 121.504C177.88 122.14 180.537 124.669 178.437 124.686C176.336 124.703 173.556 124.361 172.997 124.022C172.437 123.683 172.319 122.192 172.319 122.192Z" fill="#A8A8A8"/>
<path opacity="0.2" d="M178.474 124.464C176.374 124.481 173.594 124.139 173.034 123.8C172.608 123.542 172.438 122.617 172.381 122.189C172.342 122.191 172.319 122.192 172.319 122.192C172.319 122.192 172.437 123.683 172.997 124.022C173.556 124.361 176.336 124.703 178.437 124.686C179.043 124.681 179.252 124.467 179.241 124.149C179.157 124.341 178.925 124.461 178.474 124.464Z" fill="black"/>
</g>
<defs>
<clipPath id="clip0">
<rect width="192" height="133.608" fill="white"/>
</clipPath>
</defs>
</svg>
