<svg width="16" height="16" viewBox="0 0 16 16" fill="none" xmlns="http://www.w3.org/2000/svg">
<path fill-rule="evenodd" clip-rule="evenodd" d="M13.9156 12.4532L12.4374 13.9313L10.5455 13.4043L10.0045 13.6275L9.03323 15.3327H6.94351L5.97763 13.6216L5.43712 13.395L3.5454 13.9155L2.06798 12.4381L2.59502 10.5462L2.37183 10.005L0.666672 9.03308V6.94343L2.37839 5.97756L2.60499 5.43711L2.08447 3.54539L3.56133 2.06854L5.45324 2.59631L5.99382 2.37336L6.96363 0.666664H9.05388L10.0197 2.37838L10.5602 2.60498L12.4516 2.08455L13.9308 3.56157L13.4036 5.45378L13.6266 5.99448L15.3333 6.9643V9.05455L13.6218 10.0203L13.395 10.562L13.9156 12.4532ZM11.9872 10.4718L12.5684 9.08374L14 8.27595V7.74021L12.569 6.92704L11.9961 5.53797L12.4372 3.95444L12.058 3.57575L10.4696 4.01279L9.08298 3.4314L8.27528 2H7.73954L6.92637 3.43103L5.53718 4.00396L3.95334 3.56214L3.57584 3.93964L4.0128 5.5277L3.4314 6.91433L2 7.72202V8.25837L3.42988 9.07342L4.00257 10.462L3.56136 12.0459L3.93965 12.4242L5.52771 11.9872L6.91427 12.5686L7.72195 13.9993H8.25823L9.07264 12.5695L10.4614 11.9968L12.0452 12.438L12.4241 12.059L11.9872 10.4718ZM8 10.6667C6.52725 10.6667 5.33334 9.47276 5.33334 8C5.33334 6.52724 6.52725 5.33333 8 5.33333C9.47276 5.33333 10.6667 6.52724 10.6667 8C10.6667 9.47276 9.47276 10.6667 8 10.6667ZM8 9.33333C8.73638 9.33333 9.33334 8.73638 9.33334 8C9.33334 7.26362 8.73638 6.66667 8 6.66667C7.26362 6.66667 6.66667 7.26362 6.66667 8C6.66667 8.73638 7.26362 9.33333 8 9.33333Z" fill="#04040F"/>
</svg>
