<svg width="124" height="124" viewBox="0 0 124 124" fill="none" xmlns="http://www.w3.org/2000/svg">
<g clip-path="url(#clip0)">
<path fill-rule="evenodd" clip-rule="evenodd" d="M22.1429 39.8571C9.92 39.8571 0 49.7771 0 62C0 74.2229 9.92 84.1429 22.1429 84.1429C34.3657 84.1429 44.2857 74.2229 44.2857 62C44.2857 49.7771 34.3657 39.8571 22.1429 39.8571ZM11.2264 75.9057C12.1786 73.9129 17.98 71.9643 22.1429 71.9643C26.3057 71.9643 32.1293 73.9129 33.0593 75.9057C30.0479 78.2971 26.2614 79.7143 22.1429 79.7143C18.0243 79.7143 14.2379 78.2971 11.2264 75.9057ZM36.2257 72.695C33.0593 68.8421 25.3757 67.5357 22.1429 67.5357C18.91 67.5357 11.2264 68.8421 8.06 72.695C5.80143 69.7279 4.42857 66.03 4.42857 62C4.42857 52.235 12.3779 44.2857 22.1429 44.2857C31.9079 44.2857 39.8571 52.235 39.8571 62C39.8571 66.03 38.4843 69.7279 36.2257 72.695ZM22.1429 48.7143C17.8471 48.7143 14.3929 52.1686 14.3929 56.4643C14.3929 60.76 17.8471 64.2143 22.1429 64.2143C26.4386 64.2143 29.8929 60.76 29.8929 56.4643C29.8929 52.1686 26.4386 48.7143 22.1429 48.7143ZM22.1429 59.7857C20.305 59.7857 18.8214 58.3021 18.8214 56.4643C18.8214 54.6264 20.305 53.1429 22.1429 53.1429C23.9807 53.1429 25.4643 54.6264 25.4643 56.4643C25.4643 58.3021 23.9807 59.7857 22.1429 59.7857Z" fill="#44DCE6"/>
</g>
<line x1="40.8666" y1="55.3809" x2="85.1523" y2="31.0237" stroke="#44DCE6" stroke-width="5"/>
<line x1="40" y1="73.1206" x2="83.7707" y2="98.3917" stroke="#44DCE6" stroke-width="5"/>
<g clip-path="url(#clip1)">
<path fill-rule="evenodd" clip-rule="evenodd" d="M101.857 0C89.6343 0 79.7143 9.92 79.7143 22.1429C79.7143 34.3657 89.6343 44.2857 101.857 44.2857C114.08 44.2857 124 34.3657 124 22.1429C124 9.92 114.08 0 101.857 0ZM90.9407 36.0486C91.8929 34.0557 97.6943 32.1071 101.857 32.1071C106.02 32.1071 111.844 34.0557 112.774 36.0486C109.762 38.44 105.976 39.8571 101.857 39.8571C97.7386 39.8571 93.9522 38.44 90.9407 36.0486ZM115.94 32.8379C112.774 28.985 105.09 27.6786 101.857 27.6786C98.6243 27.6786 90.9407 28.985 87.7743 32.8379C85.5157 29.8707 84.1429 26.1729 84.1429 22.1429C84.1429 12.3779 92.0922 4.42857 101.857 4.42857C111.622 4.42857 119.571 12.3779 119.571 22.1429C119.571 26.1729 118.199 29.8707 115.94 32.8379ZM101.857 8.85714C97.5614 8.85714 94.1072 12.3114 94.1072 16.6071C94.1072 20.9029 97.5614 24.3571 101.857 24.3571C106.153 24.3571 109.607 20.9029 109.607 16.6071C109.607 12.3114 106.153 8.85714 101.857 8.85714ZM101.857 19.9286C100.019 19.9286 98.5357 18.445 98.5357 16.6071C98.5357 14.7693 100.019 13.2857 101.857 13.2857C103.695 13.2857 105.179 14.7693 105.179 16.6071C105.179 18.445 103.695 19.9286 101.857 19.9286Z" fill="#44DCE6"/>
</g>
<g clip-path="url(#clip2)">
<path fill-rule="evenodd" clip-rule="evenodd" d="M101.857 79.7143C89.6343 79.7143 79.7143 89.6343 79.7143 101.857C79.7143 114.08 89.6343 124 101.857 124C114.08 124 124 114.08 124 101.857C124 89.6343 114.08 79.7143 101.857 79.7143ZM90.9407 115.763C91.8929 113.77 97.6943 111.821 101.857 111.821C106.02 111.821 111.844 113.77 112.774 115.763C109.762 118.154 105.976 119.571 101.857 119.571C97.7386 119.571 93.9522 118.154 90.9407 115.763ZM115.94 112.552C112.774 108.699 105.09 107.393 101.857 107.393C98.6243 107.393 90.9407 108.699 87.7743 112.552C85.5157 109.585 84.1429 105.887 84.1429 101.857C84.1429 92.0921 92.0922 84.1429 101.857 84.1429C111.622 84.1429 119.571 92.0921 119.571 101.857C119.571 105.887 118.199 109.585 115.94 112.552ZM101.857 88.5714C97.5614 88.5714 94.1072 92.0257 94.1072 96.3214C94.1072 100.617 97.5614 104.071 101.857 104.071C106.153 104.071 109.607 100.617 109.607 96.3214C109.607 92.0257 106.153 88.5714 101.857 88.5714ZM101.857 99.6429C100.019 99.6429 98.5357 98.1593 98.5357 96.3214C98.5357 94.4836 100.019 93 101.857 93C103.695 93 105.179 94.4836 105.179 96.3214C105.179 98.1593 103.695 99.6429 101.857 99.6429Z" fill="#44DCE6"/>
</g>
<defs>
<clipPath id="clip0">
<rect width="44.2857" height="44.2857" fill="white" transform="translate(0 39.8571)"/>
</clipPath>
<clipPath id="clip1">
<rect width="44.2857" height="44.2857" fill="white" transform="translate(79.7143)"/>
</clipPath>
<clipPath id="clip2">
<rect width="44.2857" height="44.2857" fill="white" transform="translate(79.7143 79.7143)"/>
</clipPath>
</defs>
</svg>
