<svg width="24" height="24" viewBox="0 0 24 24" fill="none" xmlns="http://www.w3.org/2000/svg">
<path d="M12 13.3333C8.89333 13.3333 2.66666 14.8933 2.66666 18V21.3333H21.3333V18C21.3333 14.8933 15.1067 13.3333 12 13.3333ZM19.0533 19.0533H4.94666V18C5.08 17.3466 8.4 15.6133 12 15.6133C15.6 15.6133 18.92 17.3466 19.0533 18V19.0533ZM12 12C14.96 12 17.3333 9.61331 17.3333 6.66665C17.3333 3.71998 14.96 1.33331 12 1.33331C9.05333 1.33331 6.68 3.71998 6.68 6.66665C6.68 9.61331 9.05333 12 12 12ZM12 3.61331C13.68 3.61331 15.04 4.98665 15.04 6.66665C15.04 8.34665 13.68 9.71998 12 9.71998C10.3333 9.71998 8.96 8.34665 8.96 6.66665C8.96 4.98665 10.3333 3.61331 12 3.61331Z" fill="#04040F" fill-opacity="0.38"/>
</svg>
