<svg width="18" height="13" viewBox="0 0 18 13" fill="none" xmlns="http://www.w3.org/2000/svg">
<path d="M6.86002 13C6.72291 12.9995 6.58735 12.9709 6.46177 12.9158C6.33618 12.8608 6.22326 12.7805 6.13002 12.68L1.27002 7.50997C1.08835 7.31636 0.99103 7.05852 0.999469 6.79315C1.00791 6.52779 1.12142 6.27664 1.31502 6.09497C1.50863 5.9133 1.76648 5.81598 2.03184 5.82442C2.29721 5.83285 2.54835 5.94636 2.73002 6.13997L6.85003 10.53L15.26 1.32997C15.3454 1.22369 15.4515 1.13599 15.572 1.07223C15.6925 1.00848 15.8247 0.970035 15.9606 0.959251C16.0965 0.948466 16.2331 0.965574 16.3622 1.00952C16.4912 1.05347 16.6099 1.12333 16.7109 1.21482C16.8119 1.3063 16.8932 1.41748 16.9497 1.54151C17.0062 1.66555 17.0368 1.79983 17.0395 1.93611C17.0423 2.07239 17.0171 2.20778 16.9656 2.33398C16.9141 2.46018 16.8373 2.57452 16.74 2.66997L7.60003 12.67C7.50767 12.7723 7.39514 12.8545 7.26952 12.9113C7.14389 12.9681 7.00788 12.9983 6.87002 13H6.86002Z" fill="black"/>
</svg>
